# xmcd
#
# Track frame offsets: 
#        150
#        10258
#        23819
#        34232
#        47725
#        58539
#        69935
#        85229
#        99808
#        109946
#        121793
#        131833
#
# Disc length: 2001 seconds
#
# Revision: 0
# Processed by: cddbd v1.5.2PL0 Copyright (c) Steve Scherf et al.
# Submitted via: ExactAudioCopy v0.99pb5
#
DISCID=9407cf0c
DTITLE=Blaze Foley - Sittin' by the Road
DYEAR=1977
DGENRE=Country
TTITLE0=Big Cheeseburgers and Good French Fries
TTITLE1=Clay Pigeons
TTITLE2=Sittin' by the Road
TTITLE3=Slow Boat to China
TTITLE4=Election Day
TTITLE5=Let Me Ride in Your Big Cadillac
TTITLE6=Cold, Cold World
TTITLE7=The Way You Smile
TTITLE8=Rainbows and Ridges
TTITLE9=Fat Boy
TTITLE10=Faded Loves and Memories
TTITLE11=If I Could Only Fly
EXTD=
EXTT0=
EXTT1=
EXTT2=
EXTT3=
EXTT4=
EXTT5=
EXTT6=
EXTT7=
EXTT8=
EXTT9=
EXTT10=
EXTT11=
PLAYORDER=
